HIERARCHY
ROOT Hips
{
	OFFSET 0.000000 0.000000 0.000000 
	CHANNELS 6 Xposition Yposition Zposition Yrotation Zrotation Xrotation 
	JOINT Lumbar
	{
		OFFSET 0.000000 0.000000 0.000000 
		CHANNELS 3 Zrotation Xrotation Yrotation
		JOINT Neck
		{
			OFFSET 0.000000 0.445665 0.000000 
			CHANNELS 3 Zrotation Xrotation Yrotation
			End Site
			{
				OFFSET 0.000000 0.227535 0.000000 
			}
		}
		JOINT RightShoulder
		{
			OFFSET 0.019635 0.377685 0.194865 
			CHANNELS 3 Zrotation Xrotation Yrotation
			JOINT RightElbow
			{
				OFFSET 0.000000 -0.243375 0.000000 
				CHANNELS 2 Zrotation Yrotation
				JOINT RightWrist
				{
					OFFSET 0.000000 -0.264825 0.000000 
					CHANNELS 2 Zrotation Xrotation
					End Site
					{
						OFFSET 0.006600 -0.176220 0.000990 
					}
				}
			}
		}
		JOINT LeftShoulder
		{
			OFFSET 0.019635 0.377685 -0.194865 
			CHANNELS 3 Zrotation Xrotation Yrotation
			JOINT LeftElbow
			{
				OFFSET 0.000000 -0.243375 0.000000 
				CHANNELS 2 Zrotation Yrotation
				JOINT LeftWrist
				{
					OFFSET 0.000000 -0.264825 0.000000 
					CHANNELS 2 Zrotation Xrotation
					End Site
					{
						OFFSET 0.006600 -0.176220 -0.000990 
					}
				}
			}
		}
	}
	JOINT RightHip
	{
		OFFSET 0.052140 -0.069960 0.075570 
		CHANNELS 3 Zrotation Xrotation Yrotation
		JOINT RightKnee
		{
			OFFSET 0.000000 -0.402270 0.000000 
			CHANNELS 1 Zrotation
			JOINT RightAnkle
			{
				OFFSET 0.000000 -0.404085 0.000000 
				CHANNELS 3 Zrotation Xrotation Yrotation
				End Site
				{
					OFFSET 0.204105 -0.089430 0.008415 
				}
			}
		}
	}
	JOINT LeftHip
	{
		OFFSET 0.052140 -0.069960 -0.075570 
		CHANNELS 3 Zrotation Xrotation Yrotation
		JOINT LeftKnee
		{
			OFFSET 0.000000 -0.402270 0.000000 
			CHANNELS 1 Zrotation
			JOINT LeftAnkle
			{
				OFFSET 0.000000 -0.404085 0.000000 
				CHANNELS 3 Zrotation Xrotation Yrotation
				End Site
				{
					OFFSET 0.204105 -0.089430 -0.008415 
				}
			}
		}
	}
}
MOTION
Frames: 28
Frame Time: 0.02
0.8369 0.9325 0.04612 175.68312 0 -5.40055 -3.6315 3.86423 -0.63037 -23.50116 10.05872 9.45446 87.27185 -37.37394 63.13166 75.4558 145.32437 -37.40947 -14.80989 14.84443 10.34204 -21.32782 92.70308 -134.84247 -60.17533 9.5664 15.53786 -6.98702 8.08703 -24.06895 -2.10227 -4.06103 -8.92611 3.05265 12.37017 -3.4157 -23.47696 15.19891 11.44889 8.37053
0.82981 0.93047 0.03294 176.06474 0 -5.37044 -3.52532 3.83304 -0.83384 -23.51645 10.11804 9.29205 91.00188 -38.04248 62.68583 73.68523 144.88176 -35.18897 -14.86099 14.33942 9.93301 -21.30915 92.47911 -134.57469 -59.41371 9.54014 15.62423 -6.89759 8.98027 -24.86638 -2.11212 -3.9356 -8.20868 2.71062 13.06257 -3.89853 -23.51444 14.96011 11.38608 8.57259
0.82201 0.92835 0.01818 176.59041 0 -5.34326 -3.3931 3.83548 -1.00612 -23.53747 10.04812 8.98447 94.80059 -39.18323 61.81656 72.25362 142.92434 -33.35504 -14.49494 13.83592 9.72836 -21.22823 92.31913 -134.12893 -58.54452 9.48344 15.6433 -6.62469 9.72458 -25.95037 -1.80983 -3.79538 -7.13738 2.34424 13.85152 -4.52252 -23.50574 14.62339 11.21897 8.74655
0.81456 0.92633 0.00412 177.0548 0 -5.31314 -3.28245 3.83154 -1.20317 -23.54882 10.02199 8.7276 98.56033 -40.12929 61.13997 70.68717 141.54859 -31.41275 -14.29481 13.32411 9.44927 -21.15807 92.13542 -133.75566 -57.74194 9.4385 15.67379 -6.43022 10.47692 -26.87287 -1.6293 -3.6685 -6.25932 1.99585 14.6007 -5.06583 -23.51324 14.31084 11.07182 8.90693
0.80692 0.924 -0.0099 177.50404 0 -5.28946 -3.12898 3.78955 -1.35953 -23.59311 10.05877 8.5328 102.3598 -40.96589 60.44068 69.02474 140.64151 -29.18045 -14.20099 12.82883 9.08287 -21.14471 91.92699 -133.4151 -56.86626 9.40171 15.78607 -6.25505 11.48005 -27.94164 -1.53113 -3.51072 -5.23999 1.61595 15.33803 -5.68044 -23.54111 14.08497 11.03304 9.1698
0.79955 0.92233 -0.02436 178.01799 0 -5.25189 -3.05932 3.83447 -1.59024 -23.56965 9.93304 8.17485 106.05954 -42.15189 59.66546 67.65269 138.40104 -27.64773 -13.78758 12.31599 8.95699 -21.01447 91.78604 -132.97062 -56.11487 9.34208 15.71214 -5.99805 11.92902 -28.76762 -1.19164 -3.41459 -4.43202 1.29728 16.1171 -6.17767 -23.51461 13.6536 10.75047 9.22156
0.79302 0.92243 -0.03981 178.67656 0 -5.19178 -3.22551 4.11771 -2.05106 -23.34924 9.40033 7.40576 109.83502 -44.18938 59.16326 66.94614 132.73465 -27.93292 -12.55177 11.63014 9.36731 -20.46006 91.81765 -132.21311 -55.75695 9.21219 15.13435 -5.54313 10.84405 -28.86085 -0.22013 -3.49655 -4.30105 1.14753 17.03397 -6.33733 -23.36049 12.69694 9.77252 8.62635
0.78681 0.92322 -0.05562 179.39473 0 -5.11514 -3.47744 4.4864 -2.58372 -23.0615 8.70662 6.47728 113.43649 -46.56249 58.53485 66.53033 125.79861 -28.9118 -11.01529 10.95395 10.02887 -19.81403 91.91597 -131.36794 -55.52501 9.06258 14.37236 -5.01506 9.21341 -28.69614 0.97564 -3.64075 -4.39454 1.0617 17.98062 -6.36939 -23.15133 11.53465 8.56192 7.83285
0.78053 0.92375 -0.07116 180.08444 0 -5.03497 -3.69173 4.81158 -3.07255 -22.80953 8.08043 5.61944 116.88876 -48.78807 57.72607 66.01944 119.51146 -29.58782 -9.64223 10.35064 10.62499 -19.28581 91.98143 -130.61023 -55.21765 8.93201 13.69859 -4.5319 7.85881 -28.64291 2.0416 -3.7542 -4.38141 0.95077 18.88333 -6.44702 -22.96007 10.45324 7.48986 7.17736
0.77391 0.92405 -0.08724 180.78495 0 -4.99989 -3.89985 5.15682 -3.60969 -22.53587 7.4744 4.76352 121.33373 -51.02095 57.91239 65.36877 112.85744 -30.22978 -8.14088 9.40604 11.01662 -18.42882 92.05541 -129.65237 -54.97654 8.7595 13.00372 -3.99426 6.38152 -28.62556 3.23692 -3.87755 -4.37491 0.822 19.91821 -6.58497 -22.797 9.4169 6.2766 6.32003
0.76809 0.92498 -0.10224 181.47535 0 -4.86893 -4.14105 5.48118 -4.06097 -22.29149 6.78878 3.86835 123.63502 -53.29671 55.99271 65.06766 106.69952 -31.09629 -6.8418 9.19347 11.89847 -18.24186 92.13222 -129.08405 -54.63714 8.66797 12.30958 -3.55364 5.03098 -28.46671 4.2111 -3.99515 -4.41305 0.74623 20.68306 -6.56139 -22.563 8.24485 5.30232 5.83461
0.76434 0.92748 -0.11434 182.12058 0 -4.46056 -4.45655 5.71758 -4.28072 -22.14354 5.93258 2.89935 120.36045 -55.73655 48.38566 65.71002 102.1113 -32.46194 -6.16754 10.83984 14.00726 -19.87057 92.14718 -129.68311 -53.92135 8.8223 11.66594 -3.41198 4.17544 -27.993 4.52583 -4.08273 -4.51705 0.79823 20.69901 -6.15713 -22.14576 6.70166 5.05666 6.43729
0.7614 0.93056 -0.12532 182.7527 0 -3.95962 -4.80141 5.93139 -4.4074 -22.02805 5.00095 1.89845 114.88682 -58.17887 38.65973 66.68092 98.09545 -34.0169 -5.71081 13.25272 16.60994 -22.1839 92.16849 -130.66053 -53.11458 9.05526 11.02924 -3.36877 3.46576 -27.38207 4.60755 -4.16219 -4.66039 0.9018 20.44102 -5.58955 -21.66027 5.03956 5.05814 7.41669
0.75814 0.93336 -0.13672 183.3927 0 -3.51169 -5.1309 6.16184 -4.5617 -21.89758 4.09767 0.91515 110.21122 -60.5376 29.82722 67.4703 93.89647 -35.45337 -5.16112 15.41938 19.03081 -24.22634 92.22644 -131.42516 -52.40129 9.24151 10.38726 -3.27301 2.68142 -26.82392 4.79042 -4.24483 -4.78933 0.98415 20.30518 -5.07119 -21.20571 3.46131 4.93898 8.21826
0.7547 0.93629 -0.14849 184.02944 0 -3.01602 -5.4735 6.36934 -4.78052 -21.76354 3.21246 -0.08902 106.34366 -63.26843 21.2341 68.41555 89.32289 -37.05822 -4.57507 17.15428 21.28865 -26.11137 92.13567 -132.3773 -51.48086 9.47518 9.74713 -3.2083 1.90975 -26.29681 5.00142 -4.33206 -4.91171 1.06038 20.17995 -4.64611 -20.74605 1.74439 4.84573 9.04986
0.75181 0.93906 -0.15921 184.6657 0 -2.59927 -5.79266 6.61697 -4.84185 -21.64826 2.2754 -1.05254 100.31825 -65.2054 11.70282 69.09841 85.68759 -38.33956 -4.12126 19.97156 23.98986 -28.46833 92.33547 -133.00702 -50.95782 9.62677 9.108 -3.10234 1.15788 -25.67655 5.09544 -4.40668 -5.05356 1.15949 19.96762 -3.9995 -20.28596 0.29771 4.76158 9.89967
0.7503 0.94132 -0.16739 185.33152 0 -2.41221 -6.05633 6.99003 -4.49146 -21.55353 1.20211 -1.91724 88.48869 -65.07652 -0.4278 69.07259 84.4683 -38.75194 -3.97439 25.56886 27.87873 -32.12196 93.50755 -132.85304 -51.64788 9.55236 8.46442 -2.86734 0.39005 -24.82688 4.92259 -4.45064 -5.2443 1.31985 19.57688 -2.69695 -19.80445 -0.43204 4.631 10.80558
0.74931 0.94339 -0.17452 185.99138 0 -2.30981 -6.29166 7.40177 -3.9856 -21.48107 0.08306 -2.7347 74.63952 -64.12454 -13.3282 68.7493 84.1876 -38.81581 -3.95579 32.22419 32.17827 -36.1911 94.94092 -132.327 -52.72352 9.38944 7.82373 -2.58645 -0.35354 -23.89071 4.63907 -4.48141 -5.45109 1.49912 19.10834 -1.19363 -19.33256 -0.87396 4.50363 11.69968
0.74805 0.94552 -0.18206 186.63604 0 -2.17594 -6.52912 7.7898 -3.54995 -21.41426 -1.00768 -3.55958 61.96279 -63.46273 -25.53247 68.50089 83.50542 -38.98893 -3.883 38.42015 36.23516 -39.97274 96.14007 -131.83828 -53.55995 9.25361 7.18607 -2.32072 -1.0826 -22.99896 4.40555 -4.51653 -5.64661 1.6624 18.67892 0.16216 -18.88015 -1.40813 4.38413 12.53571
0.74696 0.94779 -0.18983 187.35764 0 -2.00954 -6.8141 8.20434 -3.11189 -21.28269 -2.13624 -4.4468 48.11936 -63.14989 -39.28149 68.52942 82.73251 -39.3752 -3.79936 44.58816 40.55202 -44.22021 97.82111 -131.90983 -54.66097 9.17433 6.52952 -2.08115 -1.91502 -22.07998 4.16516 -4.55856 -5.86134 1.8588 18.22551 1.76212 -18.32256 -2.10867 4.23654 13.65191
0.74562 0.9497 -0.19688 187.91551 0 -1.93186 -6.99164 8.57143 -2.64447 -21.28997 -3.19166 -5.19027 36.27376 -61.92156 -49.9573 67.89277 82.36922 -39.23387 -3.76712 51.01065 44.41084 -47.55527 98.56776 -130.73263 -55.30668 8.95725 5.91378 -1.77649 -2.52796 -21.19991 3.91598 -4.58291 -6.03819 1.98998 17.80535 2.89811 -17.98983 -2.39363 4.14149 14.17772
0.74343 0.95067 -0.20237 188.04185 0 -2.08192 -6.89042 8.81248 -2.12278 -21.68339 -4.069 -5.56655 30.28903 -58.3053 -52.04107 65.61077 82.85971 -37.70295 -3.83463 58.25208 46.96219 -48.53982 96.61023 -126.10487 -54.58115 8.364 5.40336 -1.28996 -2.54234 -20.44192 3.66867 -4.56374 -6.11629 1.93596 17.51286 2.71215 -18.25237 -1.59396 4.22222 13.07132
0.74097 0.95126 -0.20714 188.00024 0 -2.31811 -6.67977 9.00178 -1.57942 -22.21425 -4.86385 -5.79589 26.42215 -53.80728 -50.98141 62.6506 83.73307 -35.65482 -3.94986 65.63446 49.02222 -48.53898 93.71726 -120.2543 -53.39275 7.63839 4.93535 -0.74172 -2.33681 -19.72833 3.4176 -4.52695 -6.15403 1.81529 17.25491 2.05114 -18.74435 -0.3879 4.3501 11.37341
0.73865 0.95202 -0.21215 188.02284 0 -2.51312 -6.51199 9.20543 -1.05384 -22.67647 -5.67351 -6.08082 21.69708 -49.7534 -51.29344 59.91527 84.4637 -33.85495 -4.04992 72.70846 51.27037 -48.80685 91.28839 -115.01587 -52.42378 6.9838 4.45203 -0.22972 -2.23195 -18.99897 3.17006 -4.49678 -6.20319 1.72544 16.9713 1.59977 -19.14849 0.62925 4.4326 9.94356
0.73631 0.95281 -0.21752 188.09576 0 -2.71985 -6.37257 9.44931 -0.48941 -23.16493 -6.58202 -6.41271 16.46617 -45.48842 -51.86527 57.50186 85.10839 -31.98965 -4.12923 80.87082 53.69338 -49.84102 88.69272 -109.50374 -51.41116 6.27855 3.95125 0.31928 -2.12411 -18.24653 2.91104 -4.47167 -6.28071 1.63485 16.72619 1.17694 -19.48865 1.67885 4.61031 8.50361
0.73392 0.95344 -0.22195 188.02484 0 -2.92123 -6.14798 9.59637 -0.00265 -23.63188 -7.26259 -6.61079 12.81051 -41.46332 -51.14984 54.2856 85.99443 -30.13932 -4.25869 86.76148 55.61538 -49.04562 86.23317 -104.30463 -50.39799 5.6507 3.49788 0.80421 -1.96931 -17.55557 2.67624 -4.43242 -6.2912 1.52869 16.411 0.58543 -20.01007 2.74783 4.60859 6.9608
0.73138 0.95372 -0.22413 187.59167 0 -3.089 -5.71921 9.49072 0.26178 -23.99922 -7.34896 -6.49035 13.0716 -38.3323 -47.54681 48.80574 87.59076 -28.48697 -4.538 86.55043 56.39453 -43.3917 84.25079 -100.01964 -49.2824 5.25032 3.15684 1.10593 -1.75004 -17.01042 2.51255 -4.35496 -6.11028 1.4045 15.88752 -0.41132 -21.03038 3.8206 4.03174 5.13366
0.7288 0.95387 -0.22536 187.02109 0 -3.2476 -5.20797 9.28903 0.44677 -24.34152 -7.20561 -6.23795 14.84098 -35.47606 -42.77082 42.58282 89.38847 -26.86587 -4.8617 84.00862 56.6606 -35.94384 82.45727 -96.13575 -48.21225 4.93599 2.8639 1.33898 -1.48932 -16.5291 2.37338 -4.26459 -5.86618 1.26525 15.29415 -1.55274 -22.21471 4.88891 3.28448 3.24833
